<?xml version="1.0" encoding="iso-8859-1"?>
<!-- Generator: Adobe Illustrator 19.0.0, SVG Export Plug-In . SVG Version: 6.00 Build 0)  -->
<svg version="1.1" id="Capa_1" xmlns="http://www.w3.org/2000/svg" xmlns:xlink="http://www.w3.org/1999/xlink" x="0px" y="0px"
	 viewBox="0 0 512 512" style="enable-background:new 0 0 512 512;" xml:space="preserve">
<g>
	<g>
		<g>
			<path d="M456,0H56c-5.522,0-10,4.478-10,10v492c0,5.522,4.478,10,10,10h400c5.522,0,10-4.478,10-10V10C466,4.478,461.522,0,456,0
				z M446,492H66V150h20c0,4.332,2.79,8.172,6.91,9.511c52.752,17.141,107.623,25.831,163.09,25.831s110.338-8.69,163.09-25.831
				c4.12-1.339,6.91-5.179,6.91-9.511h20V492z M106,142.681V140h300v2.681c-48.628,15.04-99.052,22.661-150,22.661
				S154.628,157.721,106,142.681z M446,130h-20c0-5.522-4.478-10-10-10H96c-5.522,0-10,4.478-10,10H66V20h380V130z"/>
			<path d="M416,352c-5.51,0-9.99,4.479-10,9.99c0,0,0,0,0,0.01v90H272c-5.51,0-10,4.49-10,10s4.49,10,10,10h144
				c2.63,0,5.21-1.07,7.069-2.931C424.93,467.21,426,464.63,426,462V362C426,356.49,421.51,352,416,352z"/>
			<path d="M232,452c-5.51,0-10,4.49-10,10s4.49,10,10,10s10-4.49,10-10S237.51,452,232,452z"/>
			<path d="M336,100h80c5.522,0,10-4.478,10-10V50c0-5.522-4.478-10-10-10h-80c-5.522,0-10,4.478-10,10v40
				C326,95.522,330.478,100,336,100z M346,60h60v20h-60V60z"/>
			<path d="M216,80c5.52,0,10-4.48,10-10c0-5.521-4.48-10-10-10c-5.521,0-10,4.479-10,10C206,75.52,210.479,80,216,80z"/>
			<path d="M296,80c5.52,0,10-4.48,10-10c0-5.521-4.48-10-10-10c-5.521,0-10,4.479-10,10C286,75.52,290.479,80,296,80z"/>
			<path d="M256,80c5.52,0,10-4.48,10-10c0-5.521-4.48-10-10-10c-5.521,0-10,4.479-10,10C246,75.52,250.479,80,256,80z"/>
		</g>
	</g>
</g>
<g>
</g>
<g>
</g>
<g>
</g>
<g>
</g>
<g>
</g>
<g>
</g>
<g>
</g>
<g>
</g>
<g>
</g>
<g>
</g>
<g>
</g>
<g>
</g>
<g>
</g>
<g>
</g>
<g>
</g>
</svg>
