<svg id="Capa_1" enable-background="new 0 0 512.003 512.003" height="512" viewBox="0 0 512.003 512.003" width="512" xmlns="http://www.w3.org/2000/svg"><path d="m417.701 245.324c-8.582-9.825-20.985-15.46-34.031-15.46h-1.645l16.182-131.789c.289-2.35.017-4.734-.793-6.959l-29.575-81.244c-1.93-5.3-6.669-9.07-12.267-9.757-5.601-.684-11.109 1.824-14.263 6.5l-48.351 71.675c-1.324 1.963-2.165 4.211-2.453 6.561l-17.805 145.013h-37.568l-6.337-51.608c.371-.414.734-.837 1.079-1.279 4-5.119 5.767-11.48 4.978-17.91l-13.076-106.495c-4.023-32.763-33.949-56.141-66.714-52.123-15.822 1.943-29.969 9.967-39.835 22.596s-14.23 28.296-12.287 44.119l13.076 106.493c.888 7.239 4.906 13.331 10.516 17.132l4.797 39.074h-2.996c-13.046 0-25.45 5.635-34.031 15.461s-12.497 22.875-10.741 35.802l26.042 191.772c3.027 22.293 22.275 39.103 44.772 39.103h203.253c22.498 0 41.745-16.811 44.772-39.103l26.042-191.773c1.755-12.926-2.16-25.975-10.741-35.801zm-67.984-197.53 15.861 43.571-17.307 14.129c-2.229 1.819-4.619 1.837-5.846 1.688-1.227-.15-3.541-.747-5.264-3.053l-13.375-17.896zm-33.947 77.452c6.032 6.497 14.061 10.615 23 11.712 1.575.193 3.144.289 4.702.289 7.29 0 14.33-2.102 20.447-6.094l-12.12 98.71h-48.874zm-157.053-95.02c1.23-.151 2.452-.225 3.661-.225 14.857 0 27.765 11.113 29.621 26.227l12.38 100.83-59.284 7.28-12.38-100.831c-2.007-16.344 9.658-31.274 26.002-33.281zm-1.677 162.871 42.708-5.244 5.159 42.011h-43.352zm241.675 83.993-26.042 191.773c-1.017 7.491-7.485 13.14-15.045 13.14h-203.254c-7.56 0-14.028-5.649-15.045-13.14l-26.041-191.773c-.599-4.408.683-8.68 3.609-12.031 2.926-3.35 6.988-5.195 11.436-5.195h255.337c4.448 0 8.509 1.845 11.436 5.195 2.926 3.35 4.207 7.623 3.609 12.031z"/></svg>