<?xml version="1.0" encoding="UTF-8"?>
<!DOCTYPE svg PUBLIC "-//W3C//DTD SVG 1.1//EN" "http://www.w3.org/Graphics/SVG/1.1/DTD/svg11.dtd">
<!-- Creator: CorelDRAW 2019 (64-Bit) -->
<svg xmlns="http://www.w3.org/2000/svg" xml:space="preserve" width="6.56818in" height="8.5in" version="1.1" style="shape-rendering:geometricPrecision; text-rendering:geometricPrecision; image-rendering:optimizeQuality; fill-rule:evenodd; clip-rule:evenodd"
viewBox="0 0 6568.18 8500"
 xmlns:xlink="http://www.w3.org/1999/xlink">
 <defs>
  <style type="text/css">
   <![CDATA[
    .fil0 {fill:#C5C6C6}
   ]]>
  </style>
 </defs>
 <g id="Layer_x0020_1">
  <metadata id="CorelCorpID_0Corel-Layer"/>
  <g id="_744813552">
   <g>
    <g>
     <path class="fil0" d="M3822.54 2928.3c125.18,0 250.44,47.83 345.95,143.27 1.06,1.06 1.97,2.35 3.1,3.4l562.25 0 22.78 -591.62 -1799.16 69.33 -1591.33 1591.4c-190.27,190.34 -190.27,501.71 0,691.98l1037.85 1037.85c190.19,190.34 501.63,190.27 691.98,0l1591.4 -1591.48 20.13 -522.45 -535.84 0c-1.21,1.13 -2.04,2.42 -3.26,3.56 -95.51,95.51 -220.77,143.27 -345.95,143.27 -125.18,0 -250.44,-47.83 -346.03,-143.27 -190.95,-191.02 -190.95,-500.88 0,-691.98 95.59,-95.43 220.77,-143.27 346.1,-143.27zm-709.77 2167.74l-75.76 -75.76c-18.39,12.11 -37.24,23.31 -56.69,32.32 -49.5,23.16 -102.47,35.65 -155.38,35.65 -87.26,0.53 -172.79,-35.8 -234.47,-98.39l172.86 -173.01c20.51,19.68 37.99,26.26 61.61,26.79 14.3,-0.08 31.64,-3.26 52.07,-12.87 20.43,-9.46 44.05,-25.43 68.72,-50.03 31.94,-31.94 56.46,-63.35 71.07,-89.76 14.99,-26.79 19.45,-46.85 19.38,-60.02 -0.08,-8.4 -1.29,-14.99 -5.07,-23.61 -3.86,-8.63 -10.82,-19.75 -24.67,-33.68 -14.99,-14.99 -26.49,-21.87 -35.27,-25.73 -8.93,-3.71 -15.82,-5.07 -25.66,-5.15 -11.81,-0.08 -28.46,2.87 -49.87,10.75 -21.42,7.72 -46.7,20.28 -74.4,35.95 -55.7,31.03 -118.29,74.4 -191.1,108.53 -48.66,22.33 -103.99,41.85 -168.93,42.16 -36.48,0.08 -75.61,-6.96 -112.32,-22.86 -36.86,-15.74 -70.77,-39.66 -100.28,-69.33 -27.78,-27.78 -51.84,-61.68 -69.55,-101.57 -17.64,-39.81 -28.76,-85.98 -28.76,-135.55 -0.08,-48.21 10.6,-99.3 33.15,-148.72 9.31,-20.59 21.27,-40.87 34.51,-60.7l-73.94 -74.02 172.94 -172.94 76.9 76.97c15.29,-9.76 30.65,-18.85 46.39,-26.64 54.12,-26.94 111.48,-42.08 169,-42.08 43.21,-0.08 86.05,8.78 124.88,25.51 39.05,16.8 73.94,41.32 103.46,70.77l-172.86 173.01c-9.69,-9.61 -18.62,-15.36 -27.25,-19.15 -8.63,-3.63 -17.26,-5.52 -28.3,-5.6 -14.53,0.08 -34.21,3.71 -60.09,16.57 -25.73,12.79 -57.07,34.82 -91.35,69.1 -27.32,27.4 -42.84,51.16 -51.62,70.39 -8.78,19.38 -11.2,34.36 -11.28,47.53 0,13.32 2.87,25.28 7.72,36.4 4.92,11.05 12.04,20.96 18.92,27.78 10.97,10.9 18.47,15.14 23.69,17.41 5.3,2.19 9.08,2.95 15.97,3.1 8.93,0.08 23.77,-2.42 44.2,-10.22 20.28,-7.65 45.26,-20.28 72.73,-36.03 55.48,-31.48 119.28,-75.3 194.36,-109.51 50.18,-22.4 107.32,-41.47 173.01,-41.63 40.04,-0.15 82.65,7.79 122.99,25.35 40.34,17.41 77.73,43.9 111.03,77.2 31.94,31.94 57.82,68.04 75.3,107.47 17.56,39.35 26.19,81.89 26.11,122.84 -0.08,66.22 -21.04,126.47 -50.33,179.14 -6.89,12.26 -14.3,24.07 -22.1,35.65l77.2 77.2 -172.85 173.01z" data-original="#000000" data-old_color="#000000"/>
    </g>
   </g>
   <g>
    <g>
     <path class="fil0" d="M4033.25 3295.29c-10.44,-17.94 -22.33,-35.27 -37.69,-50.63 -46.17,-46.17 -107.62,-71.6 -172.94,-71.6 -65.39,0 -126.85,25.51 -173.09,71.67 -95.36,95.36 -95.36,250.59 0.08,345.95 46.09,46.17 107.62,71.6 172.94,71.6 65.39,0 126.85,-25.51 172.94,-71.67 15.36,-15.36 27.4,-32.69 37.77,-50.71l1311.45 0.08 0.08 -244.61 -1311.53 -0.08z" data-original="#000000" data-old_color="#000000"/>
    </g>
   </g>
  </g>
 </g>
</svg>
