<?xml version="1.0" encoding="UTF-8"?>
<!DOCTYPE svg PUBLIC "-//W3C//DTD SVG 1.1//EN" "http://www.w3.org/Graphics/SVG/1.1/DTD/svg11.dtd">
<!-- Creator: CorelDRAW 2019 (64-Bit) -->
<svg xmlns="http://www.w3.org/2000/svg" xml:space="preserve" width="5.33349in" height="4.5725in" version="1.1" style="shape-rendering:geometricPrecision; text-rendering:geometricPrecision; image-rendering:optimizeQuality; fill-rule:evenodd; clip-rule:evenodd"
viewBox="0 0 5333.54 4572.54"
 xmlns:xlink="http://www.w3.org/1999/xlink">
 <defs>
  <style type="text/css">
   <![CDATA[
    .fil0 {fill:#C5C6C6}
   ]]>
  </style>
 </defs>
 <g id="Layer_x0020_1">
  <metadata id="CorelCorpID_0Corel-Layer"/>
  <g id="_818494128">
   <g>
    <g>
     <path class="fil0" d="M3363.57 575.82c162,0 324.1,61.9 447.7,185.41 1.37,1.37 2.55,3.04 4.02,4.41l727.63 0 29.48 -765.63 -2328.34 89.72 -2059.38 2059.48c-246.23,246.33 -246.23,649.27 0,895.51l1343.11 1343.11c246.14,246.33 649.18,246.23 895.51,0l2059.48 -2059.58 26.05 -676.11 -693.44 0c-1.57,1.47 -2.65,3.13 -4.21,4.6 -123.61,123.61 -285.7,185.41 -447.7,185.41 -162,0 -324.1,-61.9 -447.8,-185.41 -247.11,-247.21 -247.11,-648.2 0,-895.51 123.7,-123.51 285.7,-185.41 447.9,-185.41zm-918.53 2805.33l-98.04 -98.04c-23.8,15.67 -48.19,30.17 -73.36,41.82 -64.06,29.97 -132.62,46.13 -201.08,46.13 -112.93,0.69 -223.61,-46.33 -303.43,-127.33l223.71 -223.9c26.54,25.46 49.17,33.99 79.73,34.67 18.51,-0.1 40.94,-4.21 67.39,-16.65 26.45,-12.24 57,-32.91 88.93,-64.74 41.33,-41.33 73.07,-81.98 91.97,-116.16 19.39,-34.67 25.17,-60.63 25.08,-77.67 -0.1,-10.87 -1.67,-19.39 -6.56,-30.56 -5,-11.17 -14.01,-25.56 -31.93,-43.59 -19.39,-19.39 -34.28,-28.31 -45.64,-33.3 -11.56,-4.8 -20.47,-6.56 -33.21,-6.66 -15.28,-0.1 -36.83,3.72 -64.54,13.91 -27.72,9.99 -60.43,26.25 -96.28,46.52 -72.09,40.16 -153.09,96.28 -247.31,140.45 -62.98,28.89 -134.58,54.16 -218.61,54.56 -47.21,0.1 -97.85,-9.01 -145.35,-29.58 -47.7,-20.37 -91.58,-51.32 -129.78,-89.72 -35.95,-35.95 -67.09,-79.82 -90.01,-131.44 -22.82,-51.52 -37.22,-111.26 -37.22,-175.42 -0.1,-62.39 13.71,-128.51 42.9,-192.46 12.05,-26.64 27.52,-52.89 44.66,-78.55l-95.69 -95.79 223.81 -223.81 99.51 99.61c19.78,-12.63 39.67,-24.39 60.04,-34.48 70.03,-34.87 144.27,-54.46 218.71,-54.46 55.93,-0.1 111.36,11.36 161.61,33.01 50.54,21.74 95.69,53.48 133.89,91.58l-223.71 223.9c-12.54,-12.44 -24.09,-19.88 -35.26,-24.78 -11.17,-4.7 -22.33,-7.15 -36.63,-7.25 -18.81,0.1 -44.27,4.8 -77.77,21.45 -33.3,16.55 -73.85,45.06 -118.22,89.42 -35.36,35.46 -55.44,66.21 -66.8,91.09 -11.36,25.08 -14.5,44.46 -14.59,61.51 0,17.24 3.72,32.71 9.99,47.11 6.37,14.3 15.57,27.13 24.48,35.95 14.2,14.1 23.9,19.59 30.66,22.53 6.85,2.84 11.75,3.82 20.67,4.02 11.56,0.1 30.76,-3.13 57.2,-13.22 26.25,-9.89 58.57,-26.25 94.12,-46.62 71.79,-40.74 154.36,-97.45 251.52,-141.73 64.94,-28.99 138.89,-53.67 223.9,-53.87 51.81,-0.2 106.95,10.09 159.16,32.81 52.21,22.53 100.59,56.81 143.69,99.9 41.33,41.33 74.83,88.05 97.45,139.08 22.72,50.93 33.89,105.98 33.79,158.97 -0.1,85.7 -27.23,163.67 -65.13,231.84 -8.91,15.87 -18.51,31.15 -28.6,46.13l99.9 99.9 -223.69 223.9z" data-original="#000000" data-old_color="#000000"/>
    </g>
   </g>
   <g>
    <g>
     <path class="fil0" d="M3636.25 1050.75c-13.52,-23.21 -28.89,-45.64 -48.78,-65.52 -59.74,-59.74 -139.28,-92.65 -223.81,-92.65 -84.62,0 -164.15,33.01 -224,92.75 -123.41,123.41 -123.41,324.29 0.1,447.7 59.65,59.74 139.28,92.65 223.81,92.65 84.62,0 164.15,-33.01 223.81,-92.75 19.88,-19.88 35.46,-42.31 48.87,-65.62l1697.18 0.1 0.1 -316.56 -1697.29 -0.1z" data-original="#000000" data-old_color="#000000"/>
    </g>
   </g>
  </g>
 </g>
</svg>
