<?xml version="1.0" encoding="UTF-8"?>
<!DOCTYPE svg PUBLIC "-//W3C//DTD SVG 1.1//EN" "http://www.w3.org/Graphics/SVG/1.1/DTD/svg11.dtd">
<!-- Creator: CorelDRAW 2019 (64-Bit) -->
<svg xmlns="http://www.w3.org/2000/svg" xml:space="preserve" width="6.48727in" height="4.49748in" version="1.1" style="shape-rendering:geometricPrecision; text-rendering:geometricPrecision; image-rendering:optimizeQuality; fill-rule:evenodd; clip-rule:evenodd"
viewBox="0 0 6487.28 4497.48"
 xmlns:xlink="http://www.w3.org/1999/xlink">
 <defs>
  <style type="text/css">
   <![CDATA[
    .fil0 {fill:#C5C6C6}
   ]]>
  </style>
 </defs>
 <g id="Layer_x0020_1">
  <metadata id="CorelCorpID_0Corel-Layer"/>
  <g id="_823866976">
   <g>
    <g>
     <path class="fil0" d="M4899.53 2862.03c-450.9,0 -817.73,366.82 -817.73,817.73 0,450.9 366.82,817.73 817.73,817.73 450.98,0 817.73,-366.82 817.73,-817.73 0,-450.9 -366.82,-817.73 -817.73,-817.73zm0 1226.59c-225.48,0 -408.86,-183.38 -408.86,-408.86 0,-225.48 183.38,-408.86 408.86,-408.86 225.48,0 408.86,183.38 408.86,408.86 0,225.5 -183.37,408.86 -408.86,408.86z" data-original="#000000" data-old_color="#000000"/>
    </g>
   </g>
   <g>
    <g>
     <path class="fil0" d="M2105.64 2862.03c-450.9,0 -817.73,366.82 -817.73,817.73 0,450.9 366.82,817.73 817.73,817.73 450.9,0 817.73,-366.82 817.73,-817.73 0,-450.9 -366.82,-817.73 -817.73,-817.73zm0 1226.59c-225.48,0 -408.86,-183.38 -408.86,-408.86 0,-225.48 183.38,-408.86 408.86,-408.86 225.42,0 408.86,183.38 408.86,408.86 0,225.5 -183.37,408.86 -408.86,408.86z" data-original="#000000" data-old_color="#000000"/>
    </g>
   </g>
   <g>
    <g>
     <path class="fil0" d="M5450.2 521.44c-34.76,-69.03 -105.42,-112.58 -182.69,-112.58l-1076.67 0 0 408.86 950.6 0 556.66 1107.2 365.39 -183.72 -613.29 -1219.76z" data-original="#000000" data-old_color="#000000"/>
    </g>
   </g>
   <g>
    <g>
     <rect class="fil0" x="2739.38" y="3482.15" width="1546.86" height="408.86" data-original="#000000" data-old_color="#000000"/>
    </g>
   </g>
   <g>
    <g>
     <path class="fil0" d="M1492.34 3482.15l-708.69 0c-112.92,0 -204.43,91.52 -204.43,204.43 0,112.92 91.52,204.43 204.43,204.43l708.7 -0c112.92,0 204.43,-91.52 204.43,-204.43 0,-112.92 -91.52,-204.42 -204.44,-204.42z" data-original="#000000" data-old_color="#000000"/>
    </g>
   </g>
   <g>
    <g>
     <path class="fil0" d="M6444.35 2232.38l-402.11 -517.89c-38.63,-49.89 -98.26,-79.05 -161.44,-79.05l-1485.54 0 0 -1431.01c0,-112.92 -91.52,-204.43 -204.43,-204.43l-3407.19 0c-112.92,0 -204.43,91.52 -204.43,204.43 0,112.91 91.52,204.43 204.43,204.43l3202.75 0 0 1431.01c0,112.92 91.52,204.43 204.43,204.43l1589.86 0 297.72 383.51 0 1054.32 -565.6 0c-112.92,0 -204.43,91.52 -204.43,204.43 0,112.92 91.52,204.43 204.43,204.43l770.02 0c112.92,0 204.43,-91.52 204.44,-204.43l-0 -1328.78c0,-45.38 -15.13,-89.54 -42.93,-125.39z" data-original="#000000" data-old_color="#000000"/>
    </g>
   </g>
   <g>
    <g>
     <path class="fil0" d="M1478.72 2446.36l-940.39 0c-112.92,0 -204.43,91.52 -204.43,204.43 0,112.92 91.52,204.43 204.43,204.43l940.38 0c112.92,0 204.43,-91.52 204.43,-204.43 0.01,-112.91 -91.51,-204.43 -204.42,-204.43z" data-original="#000000" data-old_color="#000000"/>
    </g>
   </g>
   <g>
    <g>
     <path class="fil0" d="M1948.91 1642.26l-1744.48 0c-112.91,0 -204.43,91.51 -204.43,204.44 0,112.92 91.52,204.43 204.43,204.43l1744.48 0c112.92,0 204.43,-91.52 204.43,-204.43 0,-112.91 -91.51,-204.44 -204.43,-204.44z" data-original="#000000" data-old_color="#000000"/>
    </g>
   </g>
   <g>
    <g>
     <path class="fil0" d="M2282.81 838.17l-1744.48 0c-112.92,0 -204.43,91.52 -204.43,204.43 0,112.92 91.52,204.43 204.43,204.43l1744.48 -0c112.92,0 204.43,-91.52 204.43,-204.43 0.01,-112.9 -91.51,-204.42 -204.43,-204.42z" data-original="#000000" data-old_color="#000000"/>
    </g>
   </g>
  </g>
 </g>
</svg>
