<?xml version="1.0" standalone="no"?>
<!DOCTYPE svg PUBLIC "-//W3C//DTD SVG 20010904//EN"
 "http://www.w3.org/TR/2001/REC-SVG-20010904/DTD/svg10.dtd">
<svg version="1.0" xmlns="http://www.w3.org/2000/svg"
 width="112.000000pt" height="148.000000pt" viewBox="0 0 112.000000 148.000000"
 preserveAspectRatio="xMidYMid meet">

<g transform="translate(0.000000,148.000000) scale(0.100000,-0.100000)"
fill="#000000" stroke="none">
<path d="M127 1382 c-18 -19 -22 -59 -9 -78 20 -31 54 -34 389 -34 250 0 342
-3 351 -12 9 -9 12 -101 12 -353 0 -319 -1 -343 -18 -358 -24 -22 -55 -21 -75
1 -14 15 -17 42 -17 154 0 122 2 137 20 153 11 10 25 35 31 55 30 99 -69 186
-164 146 -77 -32 -100 -135 -43 -195 25 -27 26 -30 26 -167 0 -154 12 -195 66
-245 88 -80 231 -53 283 53 20 43 21 57 21 447 l0 402 -25 24 -24 25 -404 0
c-379 0 -405 -1 -420 -18z m597 -411 c34 -38 -8 -86 -54 -61 -24 13 -26 37 -3
62 21 23 36 23 57 -1z"/>
<path d="M215 1144 c-16 -8 -41 -25 -54 -37 -50 -46 -51 -54 -51 -531 0 -244
3 -452 6 -461 17 -42 44 -45 439 -45 469 0 445 -7 445 141 l0 79 -364 0 c-318
0 -367 2 -380 16 -14 13 -16 60 -16 354 0 339 0 339 22 354 30 21 44 20 68 -4
18 -18 20 -33 20 -152 0 -129 -1 -133 -26 -159 -55 -58 -36 -157 37 -195 79
-40 179 20 179 108 0 43 -30 108 -50 108 -6 0 -10 55 -10 150 0 159 -10 200
-56 241 -56 49 -150 64 -209 33z m229 -503 c25 -28 5 -63 -32 -59 -30 3 -42
39 -22 64 17 19 34 18 54 -5z m236 -440 c7 -15 6 -23 -6 -35 -22 -23 -216 -23
-238 0 -12 12 -13 20 -6 35 10 17 22 19 125 19 103 0 115 -2 125 -19z"/>
</g>
</svg>
