<?xml version="1.0" encoding="UTF-8" standalone="no"?> <svg viewBox="-90 0 512 512"  xmlns="http://www.w3.org/2000/svg"><path d="m145.066406 401.066406c-79.992187 0-145.066406-65.074218-145.066406-145.066406s65.074219-145.066406 145.066406-145.066406c79.992188 0 145.066406 65.074218 145.066406 145.066406s-65.074218 145.066406-145.066406 145.066406zm0-273.066406c-70.578125 0-128 57.421875-128 128s57.421875 128 128 128 128-57.421875 128-128-57.421875-128-128-128zm0 0"/><path d="m238.933594 165.554688c-2.140625 0-4.257813-.808594-5.871094-2.335938-9.445312-8.960938-20.214844-16.417969-32.007812-22.1875-2.929688-1.433594-4.789063-4.402344-4.789063-7.664062v-73.632813c0-3.753906 2.46875-7.074219 6.058594-8.167969 3.59375-1.101562 7.484375.308594 9.574219 3.429688l34.132812 51.203125c.933594 1.398437 1.433594 3.054687 1.433594 4.734375v46.089844c0 3.402343-2.027344 6.492187-5.160156 7.839843-1.085938.46875-2.238282.691407-3.371094.691407zm-25.601563-37.402344c5.949219 3.175781 11.648438 6.75 17.066407 10.703125v-25.335938l-17.066407-25.601562zm0 0"/><path d="m51.199219 165.554688c-1.132813 0-2.285157-.222657-3.371094-.691407-3.128906-1.347656-5.160156-4.429687-5.160156-7.839843v-46.089844c0-1.679688.503906-3.335938 1.433593-4.734375l34.132813-51.203125c2.089844-3.121094 5.980469-4.53125 9.574219-3.429688 3.59375 1.09375 6.058594 4.414063 6.058594 8.167969v73.632813c0 3.261718-1.859376 6.230468-4.789063 7.664062-11.792969 5.769531-22.570313 13.226562-32.007813 22.1875-1.613281 1.535156-3.726562 2.335938-5.871093 2.335938zm8.535156-52.035157v25.328125c5.417969-3.945312 11.117187-7.519531 17.066406-10.695312v-40.234375zm25.597656 19.847657h.085938zm0 0"/><path d="m204.800781 141.902344c-1.28125 0-2.5625-.28125-3.738281-.871094-35.4375-17.296875-76.542969-17.296875-111.984375 0-2.644531 1.296875-5.765625 1.144531-8.257813-.4375-2.5-1.550781-4.019531-4.28125-4.019531-7.226562v-124.832032c0-4.722656 3.820313-8.535156 8.53125-8.535156h119.46875c4.710938 0 8.53125 3.8125 8.53125 8.535156v124.832032c0 2.945312-1.519531 5.675781-4.007812 7.238281-1.382813.859375-2.945313 1.296875-4.523438 1.296875zm-59.734375-30.96875c17.605469 0 34.773438 3.164062 51.199219 9.429687v-103.296875h-102.398437v103.296875c16.425781-6.265625 33.59375-9.429687 51.199218-9.429687zm0 0"/><path d="m85.332031 460.800781c-2.796875 0-5.484375-1.382812-7.097656-3.796875l-34.132813-51.203125c-.929687-1.398437-1.433593-3.054687-1.433593-4.734375v-46.089844c0-3.402343 2.03125-6.492187 5.160156-7.839843 3.140625-1.339844 6.769531-.691407 9.242187 1.644531 9.4375 8.960938 20.214844 16.417969 32.007813 22.1875 2.929687 1.433594 4.789063 4.402344 4.789063 7.664062v73.632813c0 3.753906-2.464844 7.074219-6.058594 8.167969-.820313.246094-1.648438.367187-2.476563.367187zm-25.597656-62.320312 17.066406 25.601562v-40.234375c-5.949219-3.175781-11.648437-6.75-17.066406-10.695312zm0 0"/><path d="m204.800781 460.800781c-.828125 0-1.65625-.121093-2.476562-.367187-3.589844-1.09375-6.058594-4.414063-6.058594-8.167969v-73.632813c0-3.261718 1.859375-6.230468 4.789063-7.664062 11.792968-5.769531 22.5625-13.226562 32.007812-22.1875 2.472656-2.335938 6.109375-2.992188 9.242188-1.644531 3.132812 1.347656 5.160156 4.429687 5.160156 7.839843v46.089844c0 1.679688-.5 3.335938-1.433594 4.734375l-34.132812 51.203125c-1.613282 2.414063-4.300782 3.796875-7.097657 3.796875zm8.53125-76.953125v40.234375l17.066407-25.601562v-25.335938c-5.417969 3.953125-11.117188 7.527344-17.066407 10.703125zm0 0"/><path d="m204.800781 512h-119.46875c-4.710937 0-8.53125-3.8125-8.53125-8.535156v-124.832032c0-2.945312 1.519531-5.675781 4.011719-7.238281 2.488281-1.578125 5.621094-1.730469 8.257812-.433593 35.441407 17.296874 76.542969 17.296874 111.984376 0 2.636718-1.296876 5.757812-1.144532 8.257812.433593 2.492188 1.5625 4.011719 4.292969 4.011719 7.238281v124.832032c.007812 4.722656-3.8125 8.535156-8.523438 8.535156zm-110.933593-17.066406h102.398437v-103.296875c-32.851563 12.535156-69.546875 12.535156-102.398437 0zm0 0"/><path d="m298.667969 290.132812h-19.550781c-2.542969 0-4.957032-1.132812-6.578126-3.089843-1.621093-1.953125-2.289062-4.539063-1.808593-7.03125 1.550781-8.148438 2.335937-16.222657 2.335937-24.011719s-.785156-15.863281-2.328125-24.003906c-.480469-2.492188.1875-5.078125 1.808594-7.03125s4.027344-3.097656 6.570313-3.097656h19.550781c18.824219 0 34.132812 15.308593 34.132812 34.132812s-15.308593 34.132812-34.132812 34.132812zm-9.59375-17.066406h9.59375c9.410156 0 17.066406-7.652344 17.066406-17.066406s-7.65625-17.066406-17.066406-17.066406h-9.59375c.699219 5.757812 1.058593 11.476562 1.058593 17.066406s-.359374 11.308594-1.058593 17.066406zm0 0"/><path d="m145.066406 366.933594c-61.167968 0-110.933594-49.765625-110.933594-110.933594s49.765626-110.933594 110.933594-110.933594c61.167969 0 110.933594 49.765625 110.933594 110.933594s-49.765625 110.933594-110.933594 110.933594zm0-204.800782c-51.753906 0-93.867187 42.113282-93.867187 93.867188s42.113281 93.867188 93.867187 93.867188 93.867188-42.113282 93.867188-93.867188-42.113282-93.867188-93.867188-93.867188zm0 0"/><path d="m145.066406 264.535156c-4.710937 0-8.53125-3.816406-8.53125-8.535156v-51.199219c0-4.71875 3.820313-8.535156 8.53125-8.535156 4.710938 0 8.535156 3.816406 8.535156 8.535156v51.199219c0 4.71875-3.824218 8.535156-8.535156 8.535156zm0 0"/><path d="m179.199219 264.535156h-34.132813c-4.710937 0-8.53125-3.816406-8.53125-8.535156s3.820313-8.535156 8.53125-8.535156h34.132813c4.710937 0 8.535156 3.816406 8.535156 8.535156s-3.824219 8.535156-8.535156 8.535156zm0 0"/><path d="m247.464844 264.535156h-17.066406c-4.707032 0-8.53125-3.816406-8.53125-8.535156s3.824218-8.535156 8.53125-8.535156h17.066406c4.710937 0 8.535156 3.816406 8.535156 8.535156s-3.824219 8.535156-8.535156 8.535156zm0 0"/><path d="m59.734375 264.535156h-17.066406c-4.710938 0-8.535157-3.816406-8.535157-8.535156s3.824219-8.535156 8.535157-8.535156h17.066406c4.710937 0 8.53125 3.816406 8.53125 8.535156s-3.820313 8.535156-8.53125 8.535156zm0 0"/><path d="m145.066406 179.199219c-4.710937 0-8.53125-3.8125-8.53125-8.53125v-17.066407c0-4.71875 3.820313-8.535156 8.53125-8.535156 4.710938 0 8.535156 3.816406 8.535156 8.535156v17.066407c0 4.71875-3.824218 8.53125-8.535156 8.53125zm0 0"/><path d="m145.066406 366.933594c-4.710937 0-8.53125-3.816406-8.53125-8.535156v-17.066407c0-4.71875 3.820313-8.53125 8.53125-8.53125 4.710938 0 8.535156 3.8125 8.535156 8.53125v17.066407c0 4.71875-3.824218 8.535156-8.535156 8.535156zm0 0"/><path d="m204.800781 204.800781c-2.183593 0-4.371093-.835937-6.035156-2.5-3.335937-3.335937-3.335937-8.730469 0-12.066406l12.671875-12.671875c3.339844-3.335938 8.730469-3.335938 12.066406 0 3.335938 3.335938 3.335938 8.730469 0 12.066406l-12.671875 12.671875c-1.664062 1.664063-3.847656 2.5-6.03125 2.5zm0 0"/><path d="m72.660156 336.9375c-2.183594 0-4.367187-.835938-6.03125-2.5-3.335937-3.335938-3.335937-8.730469 0-12.066406l12.671875-12.671875c3.335938-3.335938 8.730469-3.335938 12.066407 0 3.335937 3.335937 3.335937 8.730469 0 12.066406l-12.671876 12.671875c-1.671874 1.671875-3.847656 2.5-6.035156 2.5zm0 0"/><path d="m85.332031 204.800781c-2.183593 0-4.367187-.835937-6.03125-2.5l-12.671875-12.671875c-3.335937-3.335937-3.335937-8.730468 0-12.066406 3.335938-3.335938 8.730469-3.335938 12.066406 0l12.671876 12.671875c3.335937 3.335937 3.335937 8.730469 0 12.066406-1.664063 1.664063-3.847657 2.5-6.035157 2.5zm0 0"/><path d="m217.472656 336.9375c-2.183594 0-4.371094-.835938-6.035156-2.5l-12.671875-12.671875c-3.335937-3.335937-3.335937-8.730469 0-12.066406 3.335937-3.335938 8.730469-3.335938 12.066406 0l12.671875 12.671875c3.335938 3.335937 3.335938 8.730468 0 12.066406-1.664062 1.671875-3.847656 2.5-6.03125 2.5zm0 0"/><path d="m153.601562 93.867188h-17.066406c-4.710937 0-8.535156-3.816407-8.535156-8.535157s3.824219-8.53125 8.535156-8.53125h17.066406c4.707032 0 8.53125 3.8125 8.53125 8.53125s-3.824218 8.535157-8.53125 8.535157zm0 0"/><path d="m153.601562 51.199219h-17.066406c-4.710937 0-8.535156-3.8125-8.535156-8.53125s3.824219-8.535157 8.535156-8.535157h17.066406c4.707032 0 8.53125 3.816407 8.53125 8.535157s-3.824218 8.53125-8.53125 8.53125zm0 0"/><path d="m153.601562 477.867188h-17.066406c-4.710937 0-8.535156-3.816407-8.535156-8.535157s3.824219-8.53125 8.535156-8.53125h17.066406c4.707032 0 8.53125 3.8125 8.53125 8.53125s-3.824218 8.535157-8.53125 8.535157zm0 0"/><path d="m153.601562 435.199219h-17.066406c-4.710937 0-8.535156-3.8125-8.535156-8.53125s3.824219-8.535157 8.535156-8.535157h17.066406c4.707032 0 8.53125 3.816407 8.53125 8.535157s-3.824218 8.53125-8.53125 8.53125zm0 0"/></svg>